<svg width="1080" height="608" viewBox="0 0 1080 608" fill="none" xmlns="http://www.w3.org/2000/svg">
<g clip-path="url(#clip0_2009_56)">
<rect width="1080" height="608" fill="white"/>
<rect width="1080" height="608" fill="black"/>
<mask id="mask0_2009_56" style="mask-type:alpha" maskUnits="userSpaceOnUse" x="276" y="-1" width="804" height="610">
<rect x="276" y="-1" width="803.893" height="610" fill="#D9D9D9"/>
</mask>
<g mask="url(#mask0_2009_56)">
<path d="M1378.45 866.943L823.807 1148.22C814.469 1152.96 803.076 1148.76 799.049 1139.09L442.905 284.193C439.85 276.859 441.963 268.391 448.106 263.353L1245.84 -390.904C1252.45 -396.328 1261.97 -396.349 1268.61 -390.956L1381.67 -299.079C1385.87 -295.661 1388.31 -290.53 1388.31 -285.11V850.889C1388.31 857.67 1384.5 863.876 1378.45 866.943Z" fill="#333333" fill-opacity="0.25"/>
<path d="M1162.62 643.078L830.419 811.549C821.082 816.284 809.688 812.082 805.662 802.417L590.503 285.945C587.448 278.612 589.562 270.143 595.704 265.105L1080.14 -132.199C1086.75 -137.623 1096.27 -137.644 1102.9 -132.25L1165.83 -81.1103C1170.04 -77.6923 1172.48 -72.561 1172.48 -67.1412V627.024C1172.48 633.805 1168.67 640.011 1162.62 643.078Z" fill="#333333" fill-opacity="0.25"/>
<path fill-rule="evenodd" clip-rule="evenodd" d="M1079.95 85.862C1079.96 80.1641 1077.26 74.8024 1072.68 71.4064L1042.91 49.307C1036.28 44.3873 1027.16 44.6063 1020.77 49.8381L758.036 265.144C751.879 270.188 749.767 278.678 752.842 286.019L868.092 561.209C872.153 570.906 883.624 575.073 892.963 570.245L1070.18 478.605C1076.16 475.514 1079.91 469.347 1079.91 462.618L1079.95 85.862Z" fill="black" fill-opacity="0.5"/>
<path d="M1019.5 48.291C1026.6 42.478 1036.74 42.235 1044.1 47.7012L1073.88 69.8008C1078.96 73.5741 1081.96 79.5314 1081.96 85.8623L1081.91 462.618C1081.91 470.095 1077.74 476.947 1071.1 480.381L893.881 572.021C883.505 577.386 870.759 572.755 866.247 561.981L750.997 286.792C747.581 278.635 749.928 269.202 756.769 263.597L1019.5 48.291Z" stroke="black" stroke-opacity="0.5" stroke-width="4"/>
<path fill-rule="evenodd" clip-rule="evenodd" d="M1079.92 356.002L1079.91 462.618C1079.91 469.347 1076.16 475.514 1070.18 478.605L892.963 570.245C883.624 575.073 872.153 570.906 868.092 561.209L752.842 286.019C749.767 278.678 751.879 270.188 758.036 265.144L766.413 258.279V274.06H793.959V356.002H817.041V274.06H844.587V253.613H772.106L1020.77 49.8382C1027.16 44.6063 1036.28 44.3873 1042.91 49.307L1072.68 71.4064C1077.26 74.8024 1079.96 80.1641 1079.95 85.862L1079.94 253.613H1020.32V356.002H1079.92ZM1079.93 335.555H1043.41V313.263H1079.93L1079.93 335.555ZM1079.93 292.816H1043.41V274.06H1079.93L1079.93 292.816ZM1007.11 423.263H1014.9L1030.13 366.949H1025.31L1011.17 419.458L998.564 366.949H990.608L977.997 419.458L963.863 366.949H959.039L974.273 423.263H982.06L994.586 370.5L1007.11 423.263ZM1072.11 423.263H1077.02L1057.39 366.949H1050.02L1030.39 423.263H1035.3L1040.54 408.465H1066.78L1072.11 423.263ZM900.755 253.613H869.978L838.739 356.002H862.745L868.285 336.016H902.601L908.141 356.002H932.147L900.755 253.613ZM965.233 356.002V316.338H1004.01V295.891H965.233V274.06H1007.24V253.613H942.15V356.002H965.233ZM885.366 273.906L897.062 316.799H873.517L885.366 273.906ZM1053.66 369.823L1065.26 404.153H1042.07L1053.66 369.823Z" fill="#3E3E3E" fill-opacity="0.5"/>
</g>
<path d="M992.56 588.736V589.3H990.628V598H990.028V589.3H988.096V588.736H992.56ZM997.656 598H997.056V593.548C997.056 592.072 996.78 591.496 995.484 591.496C994.404 591.496 993.9 591.988 993.9 593.26V598H993.312V588.736H993.912V591.628C994.212 591.1 994.944 590.896 995.484 590.896C997.044 590.896 997.656 591.604 997.656 593.56V598ZM1002.7 596.092H1003.24C1003.24 597.364 1002.6 598.036 1001.17 598.036C999.657 598.036 998.949 597.34 998.949 595.432V593.548C998.949 591.628 999.657 590.896 1001.17 590.896C1002.79 590.896 1003.33 591.7 1003.33 593.548V594.592H999.525V595.384C999.525 596.812 999.861 597.496 1001.17 597.496C1002.45 597.496 1002.7 596.92 1002.7 596.092ZM999.525 594.04H1002.8V593.56C1002.8 592.216 1002.56 591.4 1001.17 591.4C999.873 591.4 999.525 592.048 999.525 593.524V594.04ZM1004.85 598V591.028H1005.4L1005.46 591.592C1005.83 591.088 1006.42 590.896 1007.19 590.896C1008.22 590.896 1008.82 591.328 1009.07 591.928C1009.65 591.052 1010.32 590.896 1011.09 590.896C1012.8 590.896 1013.24 591.808 1013.24 593.464V598H1012.64V593.452C1012.64 591.964 1012.35 591.448 1011.03 591.448C1009.72 591.448 1009.34 592.264 1009.34 593.272V598H1008.74V593.452C1008.74 592.144 1008.45 591.448 1007.13 591.448C1005.82 591.448 1005.45 592.06 1005.45 593.044V598H1004.85ZM1018.51 596.092H1019.05C1019.05 597.364 1018.41 598.036 1016.98 598.036C1015.47 598.036 1014.76 597.34 1014.76 595.432V593.548C1014.76 591.628 1015.47 590.896 1016.98 590.896C1018.6 590.896 1019.14 591.7 1019.14 593.548V594.592H1015.33V595.384C1015.33 596.812 1015.67 597.496 1016.98 597.496C1018.26 597.496 1018.51 596.92 1018.51 596.092ZM1015.33 594.04H1018.61V593.56C1018.61 592.216 1018.37 591.4 1016.98 591.4C1015.68 591.4 1015.33 592.048 1015.33 593.524V594.04ZM1023.44 595.432V588.328H1024.04V591.628C1024.39 591.028 1025.07 590.848 1025.66 590.848C1027.22 590.848 1027.88 591.568 1027.88 593.56V595.504C1027.88 597.364 1027.17 598.096 1025.66 598.096C1024.15 598.096 1023.44 597.544 1023.44 595.432ZM1025.66 597.496C1026.96 597.496 1027.28 596.944 1027.28 595.468V593.548C1027.28 592.036 1026.96 591.448 1025.66 591.448C1024.58 591.448 1024.03 591.916 1024.03 593.26V595.444C1024.03 596.956 1024.37 597.496 1025.66 597.496ZM1028.51 600.556L1028.71 600.028C1029.56 600.34 1029.92 600.088 1030.19 599.272L1030.51 598.036L1028.46 591.028H1029.12L1029.89 593.86L1030.83 597.1H1030.85L1031.65 593.86L1032.42 591.028H1033.08L1030.77 599.344C1030.43 600.58 1029.74 600.952 1028.51 600.556ZM1036.86 595.72L1036.27 598H1035.65L1038.03 588.736H1038.69L1041.06 598H1040.43L1039.83 595.72H1036.86ZM1038.37 589.612H1038.36L1037.01 595.156H1039.69L1038.37 589.612ZM1041.77 597.604C1041.77 597.04 1042.66 597.028 1042.66 597.604C1042.66 598.168 1041.77 598.18 1041.77 597.604ZM1048.91 591.22L1048.37 591.232C1048.33 589.768 1047.91 589.18 1046.27 589.18C1044.25 589.18 1044.19 590.152 1044.19 591.724V594.976C1044.19 596.392 1044.25 597.46 1046.27 597.46C1048.06 597.46 1048.41 596.68 1048.41 595.18V593.728H1046.29V593.188H1048.95V595.18C1048.95 597.088 1048.47 598.06 1046.27 598.06C1044.08 598.06 1043.59 597.088 1043.59 594.976V591.736C1043.59 589.564 1044.04 588.64 1046.27 588.64C1048.31 588.64 1048.87 589.468 1048.91 591.22ZM1052.41 597.532C1053.71 597.532 1054.03 596.908 1054.03 595.432V593.572C1054.03 592.06 1053.79 591.484 1052.41 591.484C1051.12 591.484 1050.79 592.072 1050.79 593.548V595.408C1050.79 596.92 1051.03 597.532 1052.41 597.532ZM1052.41 598.084C1050.9 598.084 1050.19 597.496 1050.19 595.456V593.536C1050.19 591.556 1050.9 590.92 1052.41 590.92C1053.93 590.92 1054.63 591.508 1054.63 593.572V595.456C1054.63 597.4 1053.93 598.084 1052.41 598.084ZM1060.51 598H1059.98L1059.93 597.232C1059.61 597.748 1059.03 598.108 1058.17 598.108C1056.53 598.108 1056.02 597.364 1056.02 595.552V591.028H1056.62V595.552C1056.62 597.112 1056.97 597.58 1058.23 597.58C1059.49 597.58 1059.91 596.704 1059.91 595.9V591.028H1060.51V598ZM1063.92 597.472V598.012C1062.45 598.108 1062.19 597.592 1062.19 596.032V588.736H1062.79V596.068C1062.79 597.304 1062.93 597.472 1063.92 597.472ZM1067.04 598.036C1065.56 598.036 1064.93 597.34 1064.93 595.504V593.236C1064.93 591.58 1065.75 590.896 1067.15 590.896C1067.88 590.896 1068.38 591.076 1068.77 591.52V588.256H1069.37V598H1068.84L1068.78 597.232C1068.44 597.724 1067.9 598.036 1067.04 598.036ZM1065.53 595.492C1065.53 597.064 1066.04 597.472 1067.1 597.472C1068.32 597.448 1068.77 596.788 1068.77 595.648V593.332C1068.78 592 1068.44 591.448 1067.15 591.448C1065.85 591.448 1065.53 592.084 1065.53 593.26V595.492Z" fill="black"/>
</g>
<defs>
<clipPath id="clip0_2009_56">
<rect width="1080" height="608" fill="white"/>
</clipPath>
</defs>
</svg>
